<svg xmlns="http://www.w3.org/2000/svg" xmlns:xlink="http://www.w3.org/1999/xlink" xml:lang="en" height="43.400000000000006pt" width="283.30400000000003pt" viewBox="-26.704 -28.0 283.30400000000003 43.400000000000006"><path d="M 0.0,-23.400000000000002 L 0.0,10.8" style="stroke:#DDDDDD;fill:none;stroke-width:1;stroke-dasharray:2,3.3;stroke-linecap:round;stroke-linejoin:round;" /><path d="M 36.0,-23.400000000000002 L 36.0,10.8" style="stroke:#DDDDDD;fill:none;stroke-width:1;stroke-dasharray:2,3.3;stroke-linecap:round;stroke-linejoin:round;" /><path d="M 72.0,-23.400000000000002 L 72.0,10.8" style="stroke:#DDDDDD;fill:none;stroke-width:1;stroke-dasharray:2,3.3;stroke-linecap:round;stroke-linejoin:round;" /><path d="M 108.0,-23.400000000000002 L 108.0,10.8" style="stroke:#DDDDDD;fill:none;stroke-width:1;stroke-dasharray:2,3.3;stroke-linecap:round;stroke-linejoin:round;" /><path d="M 144.0,-23.400000000000002 L 144.0,10.8" style="stroke:#DDDDDD;fill:none;stroke-width:1;stroke-dasharray:2,3.3;stroke-linecap:round;stroke-linejoin:round;" /><path d="M 180.0,-23.400000000000002 L 180.0,10.8" style="stroke:#DDDDDD;fill:none;stroke-width:1;stroke-dasharray:2,3.3;stroke-linecap:round;stroke-linejoin:round;" /><path d="M 216.0,-23.400000000000002 L 216.0,10.8" style="stroke:#DDDDDD;fill:none;stroke-width:1;stroke-dasharray:2,3.3;stroke-linecap:round;stroke-linejoin:round;" /><path d="M 252.0,-23.400000000000002 L 252.0,10.8" style="stroke:#DDDDDD;fill:none;stroke-width:1;stroke-dasharray:2,3.3;stroke-linecap:round;stroke-linejoin:round;" /><defs><clipPath id="clip0"><rect x="-1.0" y="-20.8" width="254.0" height="50.6" /></clipPath></defs><path d="M 0.0,-0.0 L 0.0,-18.0 L 18.0,-18.0 L 18.0,-0.0 L 36.0,-0.0 L 36.0,-18.0 L 54.0,-18.0 L 54.0,-0.0 L 72.0,-0.0 L 72.0,-18.0 L 90.0,-18.0 L 90.0,-0.0 L 108.0,-0.0 L 108.0,-18.0 L 126.0,-18.0 L 126.0,-0.0 L 144.0,-0.0 L 144.0,-18.0 L 162.0,-18.0 L 162.0,-0.0 L 180.0,-0.0 L 180.0,-18.0 L 198.0,-18.0 L 198.0,-0.0 L 216.0,-0.0 L 216.0,-18.0 L 234.0,-18.0 L 234.0,-0.0 L 252.0,-0.0" style="stroke:black;fill:none;stroke-width:1;stroke-dasharray:-;stroke-linecap:round;stroke-linejoin:round;" clip-path="url(#clip0)" /><text x="-7.2" y="-12.0" dominant-baseline="ideographic" fill="blue" font-size="12" font-family="sans" text-anchor="end"><tspan x="-7.2" dy="12">clk</tspan></text></svg>