<svg xmlns="http://www.w3.org/2000/svg" xmlns:xlink="http://www.w3.org/1999/xlink" xml:lang="en" height="94.4pt" width="410.312pt" viewBox="-81.71200000000002 -35.8 410.312 94.4"><path d="M 0.0,-27.0 L 0.0,54.0" style="stroke:#DDDDDD;fill:none;stroke-width:1;stroke-dasharray:2,3.3;stroke-linecap:round;stroke-linejoin:round;" /><path d="M 36.0,-27.0 L 36.0,54.0" style="stroke:#DDDDDD;fill:none;stroke-width:1;stroke-dasharray:2,3.3;stroke-linecap:round;stroke-linejoin:round;" /><path d="M 72.0,-27.0 L 72.0,54.0" style="stroke:#DDDDDD;fill:none;stroke-width:1;stroke-dasharray:2,3.3;stroke-linecap:round;stroke-linejoin:round;" /><path d="M 108.0,-27.0 L 108.0,54.0" style="stroke:#DDDDDD;fill:none;stroke-width:1;stroke-dasharray:2,3.3;stroke-linecap:round;stroke-linejoin:round;" /><path d="M 144.0,-27.0 L 144.0,54.0" style="stroke:#DDDDDD;fill:none;stroke-width:1;stroke-dasharray:2,3.3;stroke-linecap:round;stroke-linejoin:round;" /><path d="M 180.0,-27.0 L 180.0,54.0" style="stroke:#DDDDDD;fill:none;stroke-width:1;stroke-dasharray:2,3.3;stroke-linecap:round;stroke-linejoin:round;" /><path d="M 216.0,-27.0 L 216.0,54.0" style="stroke:#DDDDDD;fill:none;stroke-width:1;stroke-dasharray:2,3.3;stroke-linecap:round;stroke-linejoin:round;" /><path d="M 252.0,-27.0 L 252.0,54.0" style="stroke:#DDDDDD;fill:none;stroke-width:1;stroke-dasharray:2,3.3;stroke-linecap:round;stroke-linejoin:round;" /><path d="M 288.0,-27.0 L 288.0,54.0" style="stroke:#DDDDDD;fill:none;stroke-width:1;stroke-dasharray:2,3.3;stroke-linecap:round;stroke-linejoin:round;" /><path d="M 324.0,-27.0 L 324.0,54.0" style="stroke:#DDDDDD;fill:none;stroke-width:1;stroke-dasharray:2,3.3;stroke-linecap:round;stroke-linejoin:round;" /><defs><clipPath id="clip2"><rect x="-1.0" y="-20.8" width="326.0" height="93.8" /></clipPath></defs><path d="M 0.0,-0.0 L 72.0,-0.0" style="stroke:black;fill:none;stroke-width:1;stroke-dasharray:-;stroke-linecap:round;stroke-linejoin:round;" clip-path="url(#clip2)" /><path d="M 72.0,-0.0 L 72.0,-18.0 L 90.0,-18.0 L 90.0,-0.0 L 108.0,-0.0 L 108.0,-18.0 L 126.0,-18.0 L 126.0,-0.0 L 144.0,-0.0 L 144.0,-18.0 L 162.0,-18.0 L 162.0,-0.0 L 180.0,-0.0 L 180.0,-18.0 L 198.0,-18.0 L 198.0,-0.0 L 216.0,-0.0 L 216.0,-18.0 L 234.0,-18.0 L 234.0,-0.0 L 252.0,-0.0 L 252.0,-18.0 L 270.0,-18.0 L 270.0,-0.0 L 288.0,-0.0 L 288.0,-18.0 L 306.0,-18.0 L 306.0,-0.0 L 324.0,-0.0" style="stroke:black;fill:none;stroke-width:1;stroke-dasharray:-;stroke-linecap:round;stroke-linejoin:round;" clip-path="url(#clip2)" /><path d="M 0.0,18.0 L 72.0,18.0" style="stroke:black;fill:none;stroke-width:1;stroke-dasharray:-;stroke-linecap:round;stroke-linejoin:round;" clip-path="url(#clip2)" /><path d="M 72.0,18.0 L 72.0,36.0 L 90.0,36.0 L 90.0,18.0 L 108.0,18.0 L 108.0,36.0 L 126.0,36.0 L 126.0,18.0 L 144.0,18.0 L 144.0,36.0 L 162.0,36.0 L 162.0,18.0 L 180.0,18.0 L 180.0,36.0 L 198.0,36.0 L 198.0,18.0 L 216.0,18.0 L 216.0,36.0 L 234.0,36.0 L 234.0,18.0 L 252.0,18.0 L 252.0,36.0 L 270.0,36.0 L 270.0,18.0 L 288.0,18.0 L 288.0,36.0 L 306.0,36.0 L 306.0,18.0 L 324.0,18.0" style="stroke:black;fill:none;stroke-width:1;stroke-dasharray:-;stroke-linecap:round;stroke-linejoin:round;" clip-path="url(#clip2)" /><path d="M 2.6999999999999997,-25.2 L 71.1,-25.2" style="stroke:blue;fill:none;stroke-width:1;stroke-dasharray:-;stroke-linecap:round;stroke-linejoin:round;" /><path d="M 2.6999999999999997,-21.599999999999998 L 2.6999999999999997,-28.799999999999997" style="stroke:blue;fill:none;stroke-width:1;stroke-dasharray:-;stroke-linecap:round;stroke-linejoin:round;" /><path d="M 71.1,-21.599999999999998 L 71.1,-28.799999999999997" style="stroke:blue;fill:none;stroke-width:1;stroke-dasharray:-;stroke-linecap:round;stroke-linejoin:round;" /><path d="M 71.1,-25.2 L 323.09999999999997,-25.2" style="stroke:blue;fill:none;stroke-width:1;stroke-dasharray:-;stroke-linecap:round;stroke-linejoin:round;" /><path d="M 71.1,-21.599999999999998 L 71.1,-28.799999999999997" style="stroke:blue;fill:none;stroke-width:1;stroke-dasharray:-;stroke-linecap:round;stroke-linejoin:round;" /><path d="M 323.09999999999997,-21.599999999999998 L 323.09999999999997,-28.799999999999997" style="stroke:blue;fill:none;stroke-width:1;stroke-dasharray:-;stroke-linecap:round;stroke-linejoin:round;" /><path d="M 2.6999999999999997,43.199999999999996 L 71.1,43.199999999999996" style="stroke:blue;fill:none;stroke-width:1;stroke-dasharray:-;stroke-linecap:round;stroke-linejoin:round;" /><path d="M 2.6999999999999997,46.800000000000004 L 2.6999999999999997,39.599999999999994" style="stroke:blue;fill:none;stroke-width:1;stroke-dasharray:-;stroke-linecap:round;stroke-linejoin:round;" /><path d="M 71.1,46.800000000000004 L 71.1,39.599999999999994" style="stroke:blue;fill:none;stroke-width:1;stroke-dasharray:-;stroke-linecap:round;stroke-linejoin:round;" /><path d="M 71.1,43.199999999999996 L 323.09999999999997,43.199999999999996" style="stroke:blue;fill:none;stroke-width:1;stroke-dasharray:-;stroke-linecap:round;stroke-linejoin:round;" /><path d="M 71.1,46.800000000000004 L 71.1,39.599999999999994" style="stroke:blue;fill:none;stroke-width:1;stroke-dasharray:-;stroke-linecap:round;stroke-linejoin:round;" /><path d="M 323.09999999999997,46.800000000000004 L 323.09999999999997,39.599999999999994" style="stroke:blue;fill:none;stroke-width:1;stroke-dasharray:-;stroke-linecap:round;stroke-linejoin:round;" /><text x="-7.2" y="-12.0" dominant-baseline="ideographic" fill="blue" font-size="12" font-family="sans" text-anchor="end"><tspan x="-7.2" dy="12">low_polarity</tspan></text><text x="-7.2" y="24.0" dominant-baseline="ideographic" fill="blue" font-size="12" font-family="sans" text-anchor="end"><tspan x="-7.2" dy="12">high_polarity</tspan></text><polygon points="27.395999999999997,-19.2 27.395999999999997,-31.199999999999996 46.403999999999996,-31.199999999999996 46.403999999999996,-19.2 " style="stroke:none;fill:white;stroke-width:2.0;stroke-dasharray:-;stroke-linecap:round;stroke-linejoin:round;" /><text x="36.9" y="-33.2" dominant-baseline="central" fill="black" font-size="8" font-family="sans" text-anchor="middle"><tspan x="36.9" dy="8">idle</tspan></text><polygon points="181.11599999999999,-19.2 181.11599999999999,-31.199999999999996 213.08399999999997,-31.199999999999996 213.08399999999997,-19.2 " style="stroke:none;fill:white;stroke-width:2.0;stroke-dasharray:-;stroke-linecap:round;stroke-linejoin:round;" /><text x="197.1" y="-33.2" dominant-baseline="central" fill="black" font-size="8" font-family="sans" text-anchor="middle"><tspan x="197.1" dy="8">signal</tspan></text><polygon points="27.395999999999997,49.2 27.395999999999997,37.199999999999996 46.403999999999996,37.199999999999996 46.403999999999996,49.2 " style="stroke:none;fill:white;stroke-width:2.0;stroke-dasharray:-;stroke-linecap:round;stroke-linejoin:round;" /><text x="36.9" y="35.199999999999996" dominant-baseline="central" fill="black" font-size="8" font-family="sans" text-anchor="middle"><tspan x="36.9" dy="8">idle</tspan></text><polygon points="181.11599999999999,49.2 181.11599999999999,37.199999999999996 213.08399999999997,37.199999999999996 213.08399999999997,49.2 " style="stroke:none;fill:white;stroke-width:2.0;stroke-dasharray:-;stroke-linecap:round;stroke-linejoin:round;" /><text x="197.1" y="35.199999999999996" dominant-baseline="central" fill="black" font-size="8" font-family="sans" text-anchor="middle"><tspan x="197.1" dy="8">signal</tspan></text></svg>