<svg xmlns="http://www.w3.org/2000/svg" xmlns:xlink="http://www.w3.org/1999/xlink" xml:lang="en" height="140.92pt" width="360.24800000000005pt" viewBox="-67.648 -136.32 360.24800000000005 140.92"><circle cx="270.0" cy="-54.0" r="18.0" style="stroke:black;fill:none;stroke-width:2.0;stroke-dasharray:-;" /><path d="M 0.0,-0.0 L 2.6865689156295063e-15,-43.875 M 3.926523799766201e-15,-64.125 L 6.613092715395707e-15,-108.0" style="stroke:black;fill:none;stroke-width:2.0;stroke-dasharray:-;stroke-linecap:round;stroke-linejoin:round;" /><path d="M 13.500000000000004,-64.125 L -13.499999999999996,-64.125" style="stroke:black;fill:none;stroke-width:2.0;stroke-dasharray:-;stroke-linecap:round;stroke-linejoin:round;" /><path d="M 6.7500000000000036,-57.375 L -6.7499999999999964,-57.375" style="stroke:black;fill:none;stroke-width:2.0;stroke-dasharray:-;stroke-linecap:round;stroke-linejoin:round;" /><path d="M 13.500000000000004,-50.625 L -13.499999999999996,-50.625" style="stroke:black;fill:none;stroke-width:2.0;stroke-dasharray:-;stroke-linecap:round;stroke-linejoin:round;" /><path d="M 6.750000000000003,-43.875 L -6.749999999999997,-43.875" style="stroke:black;fill:none;stroke-width:2.0;stroke-dasharray:-;stroke-linecap:round;stroke-linejoin:round;" /><path d="M 6.613092715395707e-15,-108.0 L 40.50000000000001,-108.0 L 81.0,-108.0" style="stroke:black;fill:none;stroke-width:2.0;stroke-dasharray:-;stroke-linecap:round;stroke-linejoin:round;" /><path d="M 81.0,-108.0 L 117.0,-108.0 M 125.64000000000001,-108.0 L 149.4,-114.12 M 153.0,-108.0 L 189.0,-108.0" style="stroke:black;fill:none;stroke-width:2.0;stroke-dasharray:-;stroke-linecap:round;stroke-linejoin:round;" /><path d="M 189.0,-108.0 L 229.5,-108.0 L 270.0,-108.0" style="stroke:black;fill:none;stroke-width:2.0;stroke-dasharray:-;stroke-linecap:round;stroke-linejoin:round;" /><path d="M 270.0,-108.0 L 270.0,-72.0 L 270.0,-72.0 M 270.0,-36.0 L 270.0,-36.0 L 269.99999999999994,-0.0" style="stroke:black;fill:none;stroke-width:2.0;stroke-dasharray:-;stroke-linecap:round;stroke-linejoin:round;" /><path d="M 270.0,-72.0 L 270.62576648820607,-71.84420266909473 L 271.25598827480445,-71.62275034396957 L 271.8843560140899,-71.33550704793748 L 272.50457892179963,-70.98299545811958 L 273.11044775410517,-70.56639167276245 L 273.6958969702772,-70.08751343695394 L 274.2550654566948,-69.54880194461347 L 274.78235520427086,-68.95329739894288 L 275.2724873518566,-68.30460857600947 L 275.72055503455783,-67.60687669617 L 276.1220725078799,-66.86473396502964 L 276.4730200559074,-66.08325719899547 L 276.7698842339261,-65.26791699969338 L 277.00969304260747,-64.42452298607903 L 277.19004568161523,-63.559165632541166 L 277.3091365847622,-62.67815529527429 L 277.36577349609297,-61.78795903734618 L 277.35938940592797,-60.89513588492441 L 277.29004822737323,-60.00627116283183 L 277.15844415646643,-59.12791056681795 L 276.9658947223651,-58.26649463256932 L 276.7143275971537,-57.42829425750984 L 276.40626129732107,-56.61934792090248 L 276.04477997011026,-55.845401230761006 L 275.63350251716497,-55.11184940278688 L 275.17654636458275,-54.42368324719197 L 274.6784862420859,-53.78543920415018 L 274.14430838398374,-53.20115392808839 L 273.579360610435,-52.67432387548733 L 272.9892987887622,-52.20787030077179 L 272.38003021081005,-51.80411001072673 L 271.75765445321565,-51.4647321702263 L 271.1284023126551,-51.190781391480584 L 270.4985734274066,-50.98264727609879 L 269.8744732097181,-50.840060514666845 L 269.26234972037054,-50.7620955828874 L 268.668331117404,-50.74718000729048 L 268.0983643052277,-50.79311010775302 L 267.55815539831576,-50.897073059223786 L 267.05311259552667,-51.055675051787034 L 266.58829203694705,-51.26497526714592 L 266.16834718530606,-51.520525331376234 L 265.79748223871684,-51.817413848977 L 265.4794100411459,-52.1503155723736 L 265.21731491198136,-52.51354471462235 L 265.0138207668233,-52.90111187158644 L 264.87096484865225,-53.30678398371778 L 264.79017733235725,-53.72414673714867 L 264.772267006812,-54.14666877937671 L 264.8174131778387,-54.56776710665968 L 264.9251638731216,-54.98087296850713 L 265.0944403670423,-55.37949762947814 L 265.3235479801361,-55.75729732992361 L 265.61019304505373,-56.10813679533106 L 265.95150586917634,-56.426150658459946 L 266.344069463998,-56.705802179351686 L 266.7839537536569,-56.941938675350045 L 267.2667549201437,-57.12984310620476 L 267.78763949128864,-57.26528129782404 L 268.34139273015035,-57.34454433190418 L 268.9224708413639,-57.36448567706064 L 269.5250564717953,-57.32255268972934 L 270.14311694986736,-57.21681216947279 L 270.7704646805049,-57.04596971284908 L 271.4008190910682,-56.80938267208605 L 272.0278695081122,-56.50706658882743 L 272.64533833549564,-56.13969503854054 L 273.24704390134207,-55.708592887143546 L 273.8269623446735,-55.21572302736192 L 274.3792879221508,-54.66366672760076 L 274.89849113116975,-54.05559779006654 L 275.37937406742645,-53.3952507768491 L 275.8171224627489,-52.68688362206273 L 276.20735388222795,-51.93523500434755 L 276.54616159813247,-51.145476906488426 L 276.8301537013715,-50.323162837091765 L 277.05648705894805,-49.47417223268898 L 277.22289577744505,-48.60465159687446 L 277.32771388758675,-47.72095296575236 L 277.36989202277385,-46.82957031573373 L 277.3490079246175,-45.937074550325256 L 277.2652706702997,-45.05004771677685 L 277.11951857943586,-44.175017111165985 L 276.9132108213981,-43.3183899316128 L 276.64841280711744,-42.48638913383325 L 276.3277755116153,-41.684991131199915 L 275.9545089342701,-40.91986596301484 L 275.53234996251877,-40.196320529988036 L 275.06552496071725,-39.51924546520914 L 274.5587074586973,-38.89306617250308 L 274.01697136360974,-38.32169852234047 L 273.4457401634674,-37.808509648844066 L 272.8507326309244,-37.35628424036519 L 272.2379055708705,-36.9671966611052 L 271.61339418501035,-36.642789182881316 L 270.9834506504568,-36.38395654496531 L 270.35438152724765,-36.190936996571196 L 269.7324846214176,-36.06330991166854 L 269.1239859357093,-36.0" style="stroke:gold;fill:none;stroke-width:2.0;stroke-dasharray:-;stroke-linecap:round;stroke-linejoin:round;" /><path d="M 269.99999999999994,-0.0 L 134.99999999999997,-1.6532731788489267e-14 L 0.0,-3.3065463576978534e-14" style="stroke:black;fill:none;stroke-width:2.0;stroke-dasharray:-;stroke-linecap:round;stroke-linejoin:round;" /><text x="-17.099999999999998" y="-41.0" dominant-baseline="central" fill="black" font-size="14.0" font-family="sans" text-anchor="end"><tspan x="-17.099999999999998" dy="14.0">- </tspan></text><text x="-17.099999999999994" y="-68.0" dominant-baseline="central" fill="black" font-size="14.0" font-family="sans" text-anchor="end"><tspan x="-17.099999999999994" dy="14.0">Battery</tspan></text><text x="-17.099999999999994" y="-95.0" dominant-baseline="central" fill="black" font-size="14.0" font-family="sans" text-anchor="end"><tspan x="-17.099999999999994" dy="14.0"> +</tspan></text><circle cx="121.32000000000001" cy="-108.0" r="4.32" style="stroke:black;fill:white;stroke-width:2.0;stroke-dasharray:-;" /><circle cx="148.68" cy="-108.0" r="4.32" style="stroke:black;fill:white;stroke-width:2.0;stroke-dasharray:-;" /><text x="135.0" y="-131.72" dominant-baseline="ideographic" fill="black" font-size="14.0" font-family="sans" text-anchor="middle"><tspan x="135.0" dy="14.0">Switch</tspan></text><text x="248.39999999999998" y="-68.0" dominant-baseline="central" fill="black" font-size="14.0" font-family="sans" text-anchor="end"><tspan x="248.39999999999998" dy="14.0">Light</tspan></text></svg>