<svg xmlns="http://www.w3.org/2000/svg" xmlns:xlink="http://www.w3.org/1999/xlink" xml:lang="en" height="149.2pt" width="333.20000000000005pt" viewBox="-4.6 -127.0 333.20000000000005 149.2"><path d="M 0.0,-0.0 L 90.0,-0.0 L 90.0,-122.39999999999999 L 0.0,-122.39999999999999 L 0.0,-0.0" style="stroke:black;fill:none;stroke-width:2.0;stroke-dasharray:-;stroke-linecap:round;stroke-linejoin:round;" /><path d="M 90.0,-18.0 L 108.0,-18.0" style="stroke:black;fill:none;stroke-width:2.0;stroke-dasharray:-;stroke-linecap:round;stroke-linejoin:round;" /><path d="M 90.0,-39.6 L 108.0,-39.6" style="stroke:black;fill:none;stroke-width:2.0;stroke-dasharray:-;stroke-linecap:round;stroke-linejoin:round;" /><path d="M 90.0,-61.199999999999996 L 108.0,-61.199999999999996" style="stroke:black;fill:none;stroke-width:2.0;stroke-dasharray:-;stroke-linecap:round;stroke-linejoin:round;" /><path d="M 90.0,-82.8 L 108.0,-82.8" style="stroke:black;fill:none;stroke-width:2.0;stroke-dasharray:-;stroke-linecap:round;stroke-linejoin:round;" /><path d="M 90.0,-104.39999999999999 L 108.0,-104.39999999999999" style="stroke:black;fill:none;stroke-width:2.0;stroke-dasharray:-;stroke-linecap:round;stroke-linejoin:round;" /><path d="M 108.0,-82.8 L 162.0,-82.8 L 216.0,-82.8" style="stroke:black;fill:none;stroke-width:2.0;stroke-dasharray:-;stroke-linecap:round;stroke-linejoin:round;" /><path d="M 234.0,-21.599999999999994 L 324.0,-21.599999999999994 L 324.0,-122.39999999999998 L 234.0,-122.39999999999998 L 234.0,-21.599999999999994" style="stroke:black;fill:none;stroke-width:2.0;stroke-dasharray:-;stroke-linecap:round;stroke-linejoin:round;" /><path d="M 234.0,-39.599999999999994 L 216.0,-39.599999999999994" style="stroke:black;fill:none;stroke-width:2.0;stroke-dasharray:-;stroke-linecap:round;stroke-linejoin:round;" /><path d="M 234.0,-61.199999999999996 L 216.0,-61.199999999999996" style="stroke:black;fill:none;stroke-width:2.0;stroke-dasharray:-;stroke-linecap:round;stroke-linejoin:round;" /><path d="M 234.0,-82.8 L 216.0,-82.8" style="stroke:black;fill:none;stroke-width:2.0;stroke-dasharray:-;stroke-linecap:round;stroke-linejoin:round;" /><path d="M 234.0,-104.39999999999998 L 216.0,-104.39999999999998" style="stroke:black;fill:none;stroke-width:2.0;stroke-dasharray:-;stroke-linecap:round;stroke-linejoin:round;" /><path d="M 108.0,-39.6 L 216.0,-39.6 L 216.0,-39.599999999999994" style="stroke:black;fill:none;stroke-width:2.0;stroke-dasharray:-;stroke-linecap:round;stroke-linejoin:round;" /><path d="M 108.0,-61.199999999999996 L 216.0,-61.199999999999996 L 216.0,-61.199999999999996" style="stroke:black;fill:none;stroke-width:2.0;stroke-dasharray:-;stroke-linecap:round;stroke-linejoin:round;" /><path d="M 108.0,-104.39999999999999 L 216.0,-104.39999999999999 L 216.0,-104.39999999999998" style="stroke:black;fill:none;stroke-width:2.0;stroke-dasharray:-;stroke-linecap:round;stroke-linejoin:round;" /><path d="M 108.0,-18.0 L 144.0,-18.0 L 147.0,-27.0 L 153.0,-9.0 L 158.99999999999997,-27.0 L 165.0,-9.0 L 171.0,-27.0 L 176.99999999999997,-9.0 L 180.0,-18.0 L 216.0,-18.0" style="stroke:black;fill:none;stroke-width:2.0;stroke-dasharray:-;stroke-linecap:round;stroke-linejoin:round;" /><path d="M 216.0,-18.0 L 216.0,-28.8 L 216.0,-39.6" style="stroke:black;fill:none;stroke-width:2.0;stroke-dasharray:-;stroke-linecap:round;stroke-linejoin:round;" /><text x="84.60000000000001" y="-32.0" dominant-baseline="central" fill="black" font-size="14" font-family="sans" text-anchor="end"><tspan x="84.60000000000001" dy="14">MOSI</tspan></text><text x="84.60000000000001" y="-53.6" dominant-baseline="central" fill="black" font-size="14" font-family="sans" text-anchor="end"><tspan x="84.60000000000001" dy="14">MISO</tspan></text><text x="84.60000000000001" y="-75.19999999999999" dominant-baseline="central" fill="black" font-size="14" font-family="sans" text-anchor="end"><tspan x="84.60000000000001" dy="14">CS</tspan></text><text x="84.60000000000001" y="-96.8" dominant-baseline="central" fill="black" font-size="14" font-family="sans" text-anchor="end"><tspan x="84.60000000000001" dy="14">CLK</tspan></text><text x="84.60000000000001" y="-118.39999999999999" dominant-baseline="central" fill="black" font-size="14" font-family="sans" text-anchor="end"><tspan x="84.60000000000001" dy="14">GND</tspan></text><text x="54.0" y="-10.4" dominant-baseline="hanging" fill="black" font-size="14.0" font-family="sans" text-anchor="middle"><tspan x="54.0" dy="14.0">Controller</tspan></text><text x="239.4" y="-53.599999999999994" dominant-baseline="central" fill="black" font-size="14" font-family="sans" text-anchor="start"><tspan x="239.4" dy="14">DATA</tspan></text><text x="239.4" y="-75.19999999999999" dominant-baseline="central" fill="black" font-size="14" font-family="sans" text-anchor="start"><tspan x="239.4" dy="14">CS</tspan></text><text x="239.4" y="-96.8" dominant-baseline="central" fill="black" font-size="14" font-family="sans" text-anchor="start"><tspan x="239.4" dy="14">CLK</tspan></text><text x="239.4" y="-118.39999999999998" dominant-baseline="central" fill="black" font-size="14" font-family="sans" text-anchor="start"><tspan x="239.4" dy="14">GND</tspan></text><text x="270.0" y="-31.999999999999993" dominant-baseline="hanging" fill="black" font-size="14.0" font-family="sans" text-anchor="middle"><tspan x="270.0" dy="14.0">Peripheral</tspan></text><text x="162.0" y="-19.4" dominant-baseline="hanging" fill="black" font-size="14.0" font-family="sans" text-anchor="middle"><tspan x="162.0" dy="14.0">10kΩ</tspan></text><circle cx="216.0" cy="-39.6" r="2.6999999999999997" style="stroke:black;fill:black;stroke-width:2.0;stroke-dasharray:-;" /></svg>