<svg xmlns="http://www.w3.org/2000/svg" xmlns:xlink="http://www.w3.org/1999/xlink" xml:lang="en" height="159.51999999999998pt" width="468.26000000000005pt" viewBox="-4.6 -133.68 468.26000000000005 159.51999999999998"><path d="M 0.0,-0.0 L 90.0,-0.0 L 90.0,-90.0 L 0.0,-90.0 L 0.0,-0.0" style="stroke:black;fill:none;stroke-width:2.0;stroke-dasharray:-;stroke-linecap:round;stroke-linejoin:round;" /><path d="M 90.0,-34.199999999999996 L 108.0,-34.199999999999996" style="stroke:black;fill:none;stroke-width:2.0;stroke-dasharray:-;stroke-linecap:round;stroke-linejoin:round;" /><path d="M 90.0,-55.8 L 108.0,-55.8" style="stroke:black;fill:none;stroke-width:2.0;stroke-dasharray:-;stroke-linecap:round;stroke-linejoin:round;" /><path d="M 108.0,-34.199999999999996 L 108.0,-18.0 L 108.0,-1.8000000000000016" style="stroke:black;fill:none;stroke-width:2.0;stroke-dasharray:-;stroke-linecap:round;stroke-linejoin:round;" /><path d="M 108.0,-1.8000000000000016 L 108.0,12.6 L 99.0,12.6 L 117.0,12.6 M 101.7,16.919999999999998 L 114.3,16.919999999999998 M 106.2,21.24 L 109.8,21.24" style="stroke:black;fill:none;stroke-width:2.0;stroke-dasharray:-;stroke-linecap:round;stroke-linejoin:round;" /><path d="M 108.0,-55.8 L 144.0,-55.8 L 147.0,-64.8 L 153.0,-46.8 L 158.99999999999997,-64.8 L 165.0,-46.8 L 171.0,-64.8 L 176.99999999999997,-46.8 L 180.0,-55.8 L 216.0,-55.8" style="stroke:black;fill:none;stroke-width:2.0;stroke-dasharray:-;stroke-linecap:round;stroke-linejoin:round;" /><path d="M 216.0,-55.8 L 229.2,-55.8" style="stroke:black;fill:none;stroke-width:2.0;stroke-dasharray:-;stroke-linecap:round;stroke-linejoin:round;" /><path d="M 229.2,-69.0 L 229.2,-42.599999999999994" style="stroke:black;fill:none;stroke-width:2.0;stroke-dasharray:-;stroke-linecap:round;stroke-linejoin:round;" /><path d="M 229.2,-62.39999999999999 L 243.06,-74.27999999999999 L 243.06,-80.88" style="stroke:black;fill:none;stroke-width:2.0;stroke-dasharray:-;stroke-linecap:round;stroke-linejoin:round;" /><path d="M 229.2,-49.199999999999996 L 243.06,-37.32 L 243.06,-30.719999999999995" style="stroke:black;fill:none;stroke-width:2.0;stroke-dasharray:-;stroke-linecap:round;stroke-linejoin:round;" /><path d="M 229.2,-49.199999999999996 L 236.22669057871232,-43.177122361103706" style="stroke:black;fill:none;stroke-width:2.0;stroke-dasharray:-;stroke-linecap:round;stroke-linejoin:round;" /><path d="M 241.5414867952694 -38.62158274691193 L 233.88384163427085 -40.443798592588635 L 238.56953952315382 -45.91044612961878 Z" style="stroke:black;fill:black;stroke-linecap:butt;stroke-linejoin:miter;" /><path d="M 243.06,-30.719999999999995 L 243.06,-16.259999999999998 L 243.06,-1.8000000000000016" style="stroke:black;fill:none;stroke-width:2.0;stroke-dasharray:-;stroke-linecap:round;stroke-linejoin:round;" /><path d="M 243.06,-1.8000000000000016 L 243.06,12.6 L 234.06,12.6 L 252.06,12.6 M 236.76000000000002,16.919999999999998 L 249.36,16.919999999999998 M 241.26000000000002,21.24 L 244.86,21.24" style="stroke:black;fill:none;stroke-width:2.0;stroke-dasharray:-;stroke-linecap:round;stroke-linejoin:round;" /><path d="M 243.06,-80.88 L 297.06,-80.88 L 351.06,-80.88" style="stroke:black;fill:none;stroke-width:2.0;stroke-dasharray:-;stroke-linecap:round;stroke-linejoin:round;" /><path d="M 369.06,-35.879999999999995 L 459.06,-35.879999999999995 L 459.06,-125.88 L 369.06,-125.88 L 369.06,-35.879999999999995" style="stroke:black;fill:none;stroke-width:2.0;stroke-dasharray:-;stroke-linecap:round;stroke-linejoin:round;" /><path d="M 369.06,-59.279999999999994 L 351.06,-59.279999999999994" style="stroke:black;fill:none;stroke-width:2.0;stroke-dasharray:-;stroke-linecap:round;stroke-linejoin:round;" /><path d="M 369.06,-80.88 L 351.06,-80.88" style="stroke:black;fill:none;stroke-width:2.0;stroke-dasharray:-;stroke-linecap:round;stroke-linejoin:round;" /><path d="M 369.06,-102.48 L 351.06,-102.48" style="stroke:black;fill:none;stroke-width:2.0;stroke-dasharray:-;stroke-linecap:round;stroke-linejoin:round;" /><path d="M 351.06,-59.279999999999994 L 351.06,-30.54 L 351.06,-1.8000000000000016" style="stroke:black;fill:none;stroke-width:2.0;stroke-dasharray:-;stroke-linecap:round;stroke-linejoin:round;" /><path d="M 351.06,-1.8000000000000016 L 351.06,12.6 L 342.06,12.6 L 360.06,12.6 M 344.76,16.919999999999998 L 357.36,16.919999999999998 M 349.26,21.24 L 352.86,21.24" style="stroke:black;fill:none;stroke-width:2.0;stroke-dasharray:-;stroke-linecap:round;stroke-linejoin:round;" /><path d="M 351.06,-102.48 L 315.06,-102.48 L 312.06,-93.48 L 306.06,-111.48 L 300.06000000000006,-93.48 L 294.06,-111.48 L 288.06,-93.48 L 282.06000000000006,-111.48 L 279.06,-102.48000000000002 L 243.06,-102.48000000000002" style="stroke:black;fill:none;stroke-width:2.0;stroke-dasharray:-;stroke-linecap:round;stroke-linejoin:round;" /><path d="M 243.06,-102.48000000000002 L 243.06,-102.48000000000002 L 243.06,-80.88" style="stroke:black;fill:none;stroke-width:2.0;stroke-dasharray:-;stroke-linecap:round;stroke-linejoin:round;" /><text x="84.60000000000001" y="-48.199999999999996" dominant-baseline="central" fill="black" font-size="14" font-family="sans" text-anchor="end"><tspan x="84.60000000000001" dy="14">GND</tspan></text><text x="84.60000000000001" y="-69.8" dominant-baseline="central" fill="black" font-size="14" font-family="sans" text-anchor="end"><tspan x="84.60000000000001" dy="14">SDIO</tspan></text><text x="54.0" y="-10.4" dominant-baseline="hanging" fill="black" font-size="14.0" font-family="sans" text-anchor="middle"><tspan x="54.0" dy="14.0">Sensor (2.2V)</tspan></text><text x="162.0" y="-82.39999999999999" dominant-baseline="ideographic" fill="black" font-size="14.0" font-family="sans" text-anchor="middle"><tspan x="162.0" dy="14.0">1kΩ</tspan></text><text x="246.66" y="-69.5" dominant-baseline="central" fill="black" font-size="14.0" font-family="sans" text-anchor="start"><tspan x="246.66" dy="14.0">BC547B</tspan></text><text x="374.46000000000004" y="-73.28" dominant-baseline="central" fill="black" font-size="14" font-family="sans" text-anchor="start"><tspan x="374.46000000000004" dy="14">GND</tspan></text><text x="374.46000000000004" y="-94.88" dominant-baseline="central" fill="black" font-size="14" font-family="sans" text-anchor="start"><tspan x="374.46000000000004" dy="14">Pin 8</tspan></text><text x="374.46000000000004" y="-116.48" dominant-baseline="central" fill="black" font-size="14" font-family="sans" text-anchor="start"><tspan x="374.46000000000004" dy="14">5V</tspan></text><text x="405.06" y="-46.279999999999994" dominant-baseline="hanging" fill="black" font-size="14.0" font-family="sans" text-anchor="middle"><tspan x="405.06" dy="14.0">Arduino Uno</tspan></text><text x="297.06" y="-129.07999999999998" dominant-baseline="ideographic" fill="black" font-size="14.0" font-family="sans" text-anchor="middle"><tspan x="297.06" dy="14.0">4.7kΩ</tspan></text></svg>