<svg xmlns="http://www.w3.org/2000/svg" xmlns:xlink="http://www.w3.org/1999/xlink" xml:lang="en" height="77.6pt" width="364.52pt" viewBox="-35.92 -29.799999999999997 364.52 77.6"><defs><defs><pattern id="hatch" patternUnits="userSpaceOnUse" width="4" height="4">
<path d="M-1,1 l2,-2 M0,4 l4,-4 M3,5 l2,-2" style="stroke:black; stroke-width:.5" /></pattern></defs><defs><pattern id="hatch" patternUnits="userSpaceOnUse" width="4" height="4">
<path d="M-1,1 l2,-2 M0,4 l4,-4 M3,5 l2,-2" style="stroke:black; stroke-width:.5" /></pattern></defs></defs><defs><clipPath id="clip3"><rect x="-1.0" y="-20.8" width="326.0" height="93.8" /></clipPath></defs><polyline points="0.0,36.0 18.0,36.0 20.7,27.0 18.0,18.0 0.0,18.0 " style="stroke:black;fill:url(#hatch);stroke-width:1;stroke-dasharray:-;stroke-linecap:round;stroke-linejoin:round;" clip-path="url(#clip3)" /><polygon points="23.400000000000002,18.0 20.7,27.0 23.400000000000002,36.0 54.0,36.0 56.699999999999996,27.0 54.0,18.0 " style="stroke:black;fill:none;stroke-width:1;stroke-dasharray:-;stroke-linecap:round;stroke-linejoin:round;" clip-path="url(#clip3)" /><polygon points="59.4,18.0 56.699999999999996,27.0 59.4,36.0 90.0,36.0 92.7,27.0 90.0,18.0 " style="stroke:black;fill:none;stroke-width:1;stroke-dasharray:-;stroke-linecap:round;stroke-linejoin:round;" clip-path="url(#clip3)" /><polygon points="95.39999999999999,18.0 92.7,27.0 95.39999999999999,36.0 126.0,36.0 128.70000000000002,27.0 126.0,18.0 " style="stroke:black;fill:none;stroke-width:1;stroke-dasharray:-;stroke-linecap:round;stroke-linejoin:round;" clip-path="url(#clip3)" /><polygon points="131.4,18.0 128.70000000000002,27.0 131.4,36.0 162.0,36.0 164.70000000000002,27.0 162.0,18.0 " style="stroke:black;fill:none;stroke-width:1;stroke-dasharray:-;stroke-linecap:round;stroke-linejoin:round;" clip-path="url(#clip3)" /><polygon points="167.4,18.0 164.70000000000002,27.0 167.4,36.0 198.0,36.0 200.70000000000002,27.0 198.0,18.0 " style="stroke:black;fill:none;stroke-width:1;stroke-dasharray:-;stroke-linecap:round;stroke-linejoin:round;" clip-path="url(#clip3)" /><polygon points="203.4,18.0 200.70000000000002,27.0 203.4,36.0 234.0,36.0 236.70000000000002,27.0 234.0,18.0 " style="stroke:black;fill:none;stroke-width:1;stroke-dasharray:-;stroke-linecap:round;stroke-linejoin:round;" clip-path="url(#clip3)" /><polygon points="239.4,18.0 236.70000000000002,27.0 239.4,36.0 270.0,36.0 272.7,27.0 270.0,18.0 " style="stroke:black;fill:none;stroke-width:1;stroke-dasharray:-;stroke-linecap:round;stroke-linejoin:round;" clip-path="url(#clip3)" /><polygon points="275.40000000000003,18.0 272.7,27.0 275.40000000000003,36.0 306.0,36.0 308.7,27.0 306.0,18.0 " style="stroke:black;fill:none;stroke-width:1;stroke-dasharray:-;stroke-linecap:round;stroke-linejoin:round;" clip-path="url(#clip3)" /><polyline points="324.0,18.0 311.40000000000003,18.0 308.7,27.0 311.40000000000003,36.0 324.0,36.0 " style="stroke:black;fill:url(#hatch);stroke-width:1;stroke-dasharray:-;stroke-linecap:round;stroke-linejoin:round;" clip-path="url(#clip3)" /><path d="M 0.0,-0.0 L 0.0,-18.0 L 18.0,-18.0 L 18.0,-0.0 L 36.0,-0.0 L 36.0,-18.0 L 54.0,-18.0 L 54.0,-0.0 L 72.0,-0.0 L 72.0,-18.0 L 90.0,-18.0 L 90.0,-0.0 L 108.0,-0.0 L 108.0,-18.0 L 126.0,-18.0 L 126.0,-0.0 L 144.0,-0.0 L 144.0,-18.0 L 162.0,-18.0 L 162.0,-0.0 L 180.0,-0.0 L 180.0,-18.0 L 198.0,-18.0 L 198.0,-0.0 L 216.0,-0.0 L 216.0,-18.0 L 234.0,-18.0 L 234.0,-0.0 L 252.0,-0.0 L 252.0,-18.0 L 270.0,-18.0 L 270.0,-0.0 L 288.0,-0.0 L 288.0,-18.0 L 306.0,-18.0 L 306.0,-0.0 L 324.0,-0.0" style="stroke:black;fill:none;stroke-width:1;stroke-dasharray:-;stroke-linecap:round;stroke-linejoin:round;" clip-path="url(#clip3)" /><path d="M 20.7,-25.2 L 20.7,43.199999999999996" style="stroke:blue;fill:none;stroke-width:1;stroke-dasharray:-;stroke-linecap:round;stroke-linejoin:round;" /><path d="M 17.099999999999998,-25.2 L 24.299999999999997,-25.2" style="stroke:blue;fill:none;stroke-width:1;stroke-dasharray:-;stroke-linecap:round;stroke-linejoin:round;" /><path d="M 17.099999999999998,43.199999999999996 L 24.299999999999997,43.199999999999996" style="stroke:blue;fill:none;stroke-width:1;stroke-dasharray:-;stroke-linecap:round;stroke-linejoin:round;" /><path d="M 74.7,43.199999999999996 L 74.7,-25.2" style="stroke:red;fill:none;stroke-width:1;stroke-dasharray:-;stroke-linecap:round;stroke-linejoin:round;" /><path d="M 78.30000000000001,43.199999999999996 L 71.10000000000001,43.199999999999996" style="stroke:red;fill:none;stroke-width:1;stroke-dasharray:-;stroke-linecap:round;stroke-linejoin:round;" /><path d="M 78.30000000000001,-25.2 L 71.10000000000001,-25.2" style="stroke:red;fill:none;stroke-width:1;stroke-dasharray:-;stroke-linecap:round;stroke-linejoin:round;" /><text x="-7.2" y="-12.0" dominant-baseline="ideographic" fill="blue" font-size="12" font-family="sans" text-anchor="end"><tspan x="-7.2" dy="12">clk</tspan></text><text x="-7.2" y="24.0" dominant-baseline="ideographic" fill="blue" font-size="12" font-family="sans" text-anchor="end"><tspan x="-7.2" dy="12">data</tspan></text><text x="38.699999999999996" y="16.0" dominant-baseline="central" fill="black" font-size="11" font-family="sans" text-anchor="middle"><tspan x="38.699999999999996" dy="11">b1</tspan></text><text x="74.7" y="16.0" dominant-baseline="central" fill="black" font-size="11" font-family="sans" text-anchor="middle"><tspan x="74.7" dy="11">b2</tspan></text><text x="110.7" y="16.0" dominant-baseline="central" fill="black" font-size="11" font-family="sans" text-anchor="middle"><tspan x="110.7" dy="11">b3</tspan></text><text x="146.70000000000002" y="16.0" dominant-baseline="central" fill="black" font-size="11" font-family="sans" text-anchor="middle"><tspan x="146.70000000000002" dy="11">b4</tspan></text><text x="182.70000000000002" y="16.0" dominant-baseline="central" fill="black" font-size="11" font-family="sans" text-anchor="middle"><tspan x="182.70000000000002" dy="11">b5</tspan></text><text x="218.70000000000002" y="16.0" dominant-baseline="central" fill="black" font-size="11" font-family="sans" text-anchor="middle"><tspan x="218.70000000000002" dy="11">b6</tspan></text><text x="254.70000000000002" y="16.0" dominant-baseline="central" fill="black" font-size="11" font-family="sans" text-anchor="middle"><tspan x="254.70000000000002" dy="11">b7</tspan></text><text x="290.7" y="16.0" dominant-baseline="central" fill="black" font-size="11" font-family="sans" text-anchor="middle"><tspan x="290.7" dy="11">b8</tspan></text><polygon points="7.956000000000001,14.999999999999998 7.956000000000001,3.0000000000000004 33.443999999999996,3.0000000000000004 33.443999999999996,14.999999999999998 " style="stroke:none;fill:white;stroke-width:2.0;stroke-dasharray:-;stroke-linecap:round;stroke-linejoin:round;" /><text x="20.7" y="1.0" dominant-baseline="central" fill="black" font-size="8" font-family="sans" text-anchor="middle"><tspan x="20.7" dy="8">write</tspan></text><polygon points="62.28000000000001,14.999999999999998 62.28000000000001,3.0000000000000004 87.12,3.0000000000000004 87.12,14.999999999999998 " style="stroke:none;fill:white;stroke-width:2.0;stroke-dasharray:-;stroke-linecap:round;stroke-linejoin:round;" /><text x="74.7" y="1.0" dominant-baseline="central" fill="black" font-size="8" font-family="sans" text-anchor="middle"><tspan x="74.7" dy="8">read</tspan></text></svg>