<svg xmlns="http://www.w3.org/2000/svg" xmlns:xlink="http://www.w3.org/1999/xlink" xml:lang="en" height="69.19999999999999pt" width="311.24pt" viewBox="-18.64 -35.8 311.24 69.19999999999999"><defs><clipPath id="clip1"><rect x="-1.0" y="-20.8" width="290.0" height="79.4" /></clipPath></defs><path d="M 0.0,-0.0 L 72.0,-0.0" style="stroke:black;fill:none;stroke-width:1;stroke-dasharray:-;stroke-linecap:round;stroke-linejoin:round;" clip-path="url(#clip1)" /><path d="M 72.0,-0.0 L 72.0,-18.0 L 144.0,-18.0" style="stroke:black;fill:none;stroke-width:1;stroke-dasharray:-;stroke-linecap:round;stroke-linejoin:round;" clip-path="url(#clip1)" /><path d="M 144.0,-18.0 L 144.0,-0.0 L 216.0,-0.0" style="stroke:black;fill:none;stroke-width:1;stroke-dasharray:-;stroke-linecap:round;stroke-linejoin:round;" clip-path="url(#clip1)" /><path d="M 216.0,-0.0 L 216.0,-18.0 L 288.0,-18.0" style="stroke:black;fill:none;stroke-width:1;stroke-dasharray:-;stroke-linecap:round;stroke-linejoin:round;" clip-path="url(#clip1)" /><path d="M 0.0,28.8 L 36.0,28.8" style="stroke:black;fill:none;stroke-width:1;stroke-dasharray:-;stroke-linecap:round;stroke-linejoin:round;" clip-path="url(#clip1)" /><path d="M 36.0,28.8 L 36.0,10.8 L 144.0,10.8" style="stroke:black;fill:none;stroke-width:1;stroke-dasharray:-;stroke-linecap:round;stroke-linejoin:round;" clip-path="url(#clip1)" /><path d="M 144.0,10.8 L 144.0,28.8 L 180.0,28.8" style="stroke:black;fill:none;stroke-width:1;stroke-dasharray:-;stroke-linecap:round;stroke-linejoin:round;" clip-path="url(#clip1)" /><path d="M 180.0,28.8 L 180.0,10.8 L 288.0,10.8" style="stroke:black;fill:none;stroke-width:1;stroke-dasharray:-;stroke-linecap:round;stroke-linejoin:round;" clip-path="url(#clip1)" /><text x="-7.2" y="-12.0" dominant-baseline="ideographic" fill="blue" font-size="12" font-family="sans" text-anchor="end"><tspan x="-7.2" dy="12">a</tspan></text><text x="-7.2" y="16.8" dominant-baseline="ideographic" fill="blue" font-size="12" font-family="sans" text-anchor="end"><tspan x="-7.2" dy="12">b</tspan></text><path d="M 22.799999999999997,-25.2 L 13.200000000000001,-25.2" style="stroke:none;fill:none;stroke-width:1;stroke-dasharray:2,3.3;stroke-linecap:round;stroke-linejoin:round;" /><path d="M 58.8,-25.2 L 49.2,-25.2" style="stroke:none;fill:none;stroke-width:1;stroke-dasharray:2,3.3;stroke-linecap:round;stroke-linejoin:round;" /><path d="M 94.8,-25.2 L 85.2,-25.2" style="stroke:none;fill:none;stroke-width:1;stroke-dasharray:2,3.3;stroke-linecap:round;stroke-linejoin:round;" /><path d="M 130.8,-25.2 L 121.2,-25.2" style="stroke:none;fill:none;stroke-width:1;stroke-dasharray:2,3.3;stroke-linecap:round;stroke-linejoin:round;" /><polygon points="9.36,-19.2 9.36,-31.199999999999996 26.64,-31.199999999999996 26.64,-19.2 " style="stroke:none;fill:white;stroke-width:2.0;stroke-dasharray:-;stroke-linecap:round;stroke-linejoin:round;" /><text x="18.0" y="-33.2" dominant-baseline="central" fill="black" font-size="8" font-family="sans" text-anchor="middle"><tspan x="18.0" dy="8">0,0</tspan></text><polygon points="45.36,-19.2 45.36,-31.199999999999996 62.64,-31.199999999999996 62.64,-19.2 " style="stroke:none;fill:white;stroke-width:2.0;stroke-dasharray:-;stroke-linecap:round;stroke-linejoin:round;" /><text x="54.0" y="-33.2" dominant-baseline="central" fill="black" font-size="8" font-family="sans" text-anchor="middle"><tspan x="54.0" dy="8">0,1</tspan></text><polygon points="81.36000000000001,-19.2 81.36000000000001,-31.199999999999996 98.63999999999999,-31.199999999999996 98.63999999999999,-19.2 " style="stroke:none;fill:white;stroke-width:2.0;stroke-dasharray:-;stroke-linecap:round;stroke-linejoin:round;" /><text x="90.0" y="-33.2" dominant-baseline="central" fill="black" font-size="8" font-family="sans" text-anchor="middle"><tspan x="90.0" dy="8">1,1</tspan></text><polygon points="117.36000000000001,-19.2 117.36000000000001,-31.199999999999996 134.64,-31.199999999999996 134.64,-19.2 " style="stroke:none;fill:white;stroke-width:2.0;stroke-dasharray:-;stroke-linecap:round;stroke-linejoin:round;" /><text x="126.0" y="-33.2" dominant-baseline="central" fill="black" font-size="8" font-family="sans" text-anchor="middle"><tspan x="126.0" dy="8">1,1</tspan></text></svg>