<svg xmlns="http://www.w3.org/2000/svg" xmlns:xlink="http://www.w3.org/1999/xlink" xml:lang="en" height="101.00000000000001pt" width="292.52pt" viewBox="-35.92 -28.0 292.52 101.00000000000001"><defs><defs><pattern id="hatch" patternUnits="userSpaceOnUse" width="4" height="4">
<path d="M-1,1 l2,-2 M0,4 l4,-4 M3,5 l2,-2" style="stroke:black; stroke-width:.5" /></pattern></defs><defs><pattern id="hatch" patternUnits="userSpaceOnUse" width="4" height="4">
<path d="M-1,1 l2,-2 M0,4 l4,-4 M3,5 l2,-2" style="stroke:black; stroke-width:.5" /></pattern></defs></defs><path d="M 0.0,-23.400000000000002 L 0.0,68.4" style="stroke:#DDDDDD;fill:none;stroke-width:1;stroke-dasharray:2,3.3;stroke-linecap:round;stroke-linejoin:round;" /><path d="M 36.0,-23.400000000000002 L 36.0,68.4" style="stroke:#DDDDDD;fill:none;stroke-width:1;stroke-dasharray:2,3.3;stroke-linecap:round;stroke-linejoin:round;" /><path d="M 72.0,-23.400000000000002 L 72.0,68.4" style="stroke:#DDDDDD;fill:none;stroke-width:1;stroke-dasharray:2,3.3;stroke-linecap:round;stroke-linejoin:round;" /><path d="M 108.0,-23.400000000000002 L 108.0,68.4" style="stroke:#DDDDDD;fill:none;stroke-width:1;stroke-dasharray:2,3.3;stroke-linecap:round;stroke-linejoin:round;" /><path d="M 144.0,-23.400000000000002 L 144.0,68.4" style="stroke:#DDDDDD;fill:none;stroke-width:1;stroke-dasharray:2,3.3;stroke-linecap:round;stroke-linejoin:round;" /><path d="M 180.0,-23.400000000000002 L 180.0,68.4" style="stroke:#DDDDDD;fill:none;stroke-width:1;stroke-dasharray:2,3.3;stroke-linecap:round;stroke-linejoin:round;" /><path d="M 216.0,-23.400000000000002 L 216.0,68.4" style="stroke:#DDDDDD;fill:none;stroke-width:1;stroke-dasharray:2,3.3;stroke-linecap:round;stroke-linejoin:round;" /><path d="M 252.0,-23.400000000000002 L 252.0,68.4" style="stroke:#DDDDDD;fill:none;stroke-width:1;stroke-dasharray:2,3.3;stroke-linecap:round;stroke-linejoin:round;" /><defs><clipPath id="clip1"><rect x="-1.0" y="-20.8" width="254.0" height="108.2" /></clipPath></defs><polyline points="0.0,28.8 72.0,28.8 74.7,19.8 72.0,10.8 0.0,10.8 " style="stroke:black;fill:url(#hatch);stroke-width:1;stroke-dasharray:-;stroke-linecap:round;stroke-linejoin:round;" clip-path="url(#clip1)" /><polygon points="77.39999999999999,10.8 74.7,19.8 77.39999999999999,28.8 108.0,28.8 110.7,19.8 108.0,10.8 " style="stroke:black;fill:none;stroke-width:1;stroke-dasharray:-;stroke-linecap:round;stroke-linejoin:round;" clip-path="url(#clip1)" /><polygon points="113.39999999999999,10.8 110.7,19.8 113.39999999999999,28.8 180.0,28.8 182.70000000000002,19.8 180.0,10.8 " style="stroke:black;fill:none;stroke-width:1;stroke-dasharray:-;stroke-linecap:round;stroke-linejoin:round;" clip-path="url(#clip1)" /><polyline points="252.0,10.8 185.4,10.8 182.70000000000002,19.8 185.4,28.8 252.0,28.8 " style="stroke:black;fill:url(#hatch);stroke-width:1;stroke-dasharray:-;stroke-linecap:round;stroke-linejoin:round;" clip-path="url(#clip1)" /><path d="M 0.0,-0.0 L 0.0,-18.0 L 18.0,-18.0 L 18.0,-0.0 L 36.0,-0.0 L 36.0,-18.0 L 54.0,-18.0 L 54.0,-0.0 L 72.0,-0.0 L 72.0,-18.0 L 90.0,-18.0 L 90.0,-0.0 L 108.0,-0.0 L 108.0,-18.0 L 126.0,-18.0 L 126.0,-0.0 L 144.0,-0.0 L 144.0,-18.0 L 162.0,-18.0 L 162.0,-0.0 L 180.0,-0.0 L 180.0,-18.0 L 198.0,-18.0 L 198.0,-0.0 L 216.0,-0.0 L 216.0,-18.0 L 234.0,-18.0 L 234.0,-0.0 L 252.0,-0.0" style="stroke:black;fill:none;stroke-width:1;stroke-dasharray:-;stroke-linecap:round;stroke-linejoin:round;" clip-path="url(#clip1)" /><path d="M 0.0,57.6 L 72.0,57.6" style="stroke:black;fill:none;stroke-width:1;stroke-dasharray:-;stroke-linecap:round;stroke-linejoin:round;" clip-path="url(#clip1)" /><path d="M 72.0,57.6 L 77.39999999999999,39.6 L 180.0,39.6" style="stroke:black;fill:none;stroke-width:1;stroke-dasharray:-;stroke-linecap:round;stroke-linejoin:round;" clip-path="url(#clip1)" /><path d="M 180.0,39.6 L 185.4,57.6 L 252.0,57.6" style="stroke:black;fill:none;stroke-width:1;stroke-dasharray:-;stroke-linecap:round;stroke-linejoin:round;" clip-path="url(#clip1)" /><text x="-7.2" y="-12.0" dominant-baseline="ideographic" fill="blue" font-size="12" font-family="sans" text-anchor="end"><tspan x="-7.2" dy="12">clk</tspan></text><text x="-7.2" y="16.8" dominant-baseline="ideographic" fill="blue" font-size="12" font-family="sans" text-anchor="end"><tspan x="-7.2" dy="12">data</tspan></text><text x="92.7" y="8.8" dominant-baseline="central" fill="black" font-size="11" font-family="sans" text-anchor="middle"><tspan x="92.7" dy="11">request</tspan></text><text x="146.70000000000002" y="8.8" dominant-baseline="central" fill="black" font-size="11" font-family="sans" text-anchor="middle"><tspan x="146.70000000000002" dy="11">response</tspan></text><text x="-7.2" y="45.6" dominant-baseline="ideographic" fill="blue" font-size="12" font-family="sans" text-anchor="end"><tspan x="-7.2" dy="12">cs</tspan></text></svg>